<svg xmlns="http://www.w3.org/2000/svg" width="1200" height="1500" viewBox="0 0 1200 1500"><style>text{font-family:Helvetica,Arial,sans-serif;fill:#222}.h{font-size:22px;font-weight:bold}.s{font-size:13px;fill:#666}.l{font-size:12px;fill:#444}.n{font-size:44px;font-weight:bold}.m{font-size:20px;font-weight:bold}.box{fill:#fff;stroke:#bbb}.bar{fill:#3a7bd5}.chip{fill:#e6f4ea;stroke:#8fcf9f}.dark{fill:#f3f3f1;stroke:#bbb}</style>
<rect width="1200" height="1500" fill="#fafaf8"/>
<text x="40" y="50" class="h">Design System health report · August 2026</text>
<text x="40" y="76" class="s">Owner: A. Rivera · Definitions ↗ · Data ↗ · Numbers as of 2026-09-01 06:00</text>
<rect x="40" y="100" width="1120" height="200" class="box"/>
<text x="64" y="132" class="s">COVERAGE OF WHAT USERS SEE · all in-scope web surfaces · pixel-weighted, sample-weighted, 28-day (M1 v2)</text>
<text x="64" y="205" class="n">68.3%</text>
<text x="64" y="240" class="l">baseline 48.2% (Feb) → now 68.3% → target 80% (Dec)</text>
<rect x="290" y="190" width="70" height="26" rx="13" class="chip"/><text x="300" y="208" class="l">▲ +2.1 pts</text>
<polyline points="520,246 632,238 744,222 856,206 968,190 1080,176" fill="none" stroke="#3a7bd5" stroke-width="3"/>
<circle cx="520" cy="246" r="3" fill="#3a7bd5"/><circle cx="632" cy="238" r="3" fill="#3a7bd5"/><circle cx="744" cy="222" r="3" fill="#3a7bd5"/><circle cx="856" cy="206" r="3" fill="#3a7bd5"/><circle cx="968" cy="190" r="3" fill="#3a7bd5"/><circle cx="1080" cy="176" r="3" fill="#3a7bd5"/>
<line x1="520" y1="260" x2="1080" y2="260" stroke="#ddd"/>
<text x="520" y="278" class="s">Mar</text><text x="1060" y="278" class="s">Aug</text>
<text x="520" y="150" class="s">six-period trend (28-day periods)</text>
<g id="tiles">
<rect x="40" y="330" width="265" height="150" class="box"/><text x="56" y="355" class="s">COST PER CONSUMING TEAM (M9)</text><text x="56" y="400" class="m">$41k</text><text x="56" y="425" class="l">target ≤ $45k · variance −4k · 22 teams · 1:58</text><polyline points="56,446 110,450 160,455 210,458 260,462" fill="none" stroke="#3a7bd5" stroke-width="2"/><text x="215" y="470" class="s">owner FIN</text>
<rect x="325" y="330" width="265" height="150" class="box"/><text x="341" y="355" class="s">OVERRIDE RATE (M2)</text><text x="341" y="400" class="m">8.1%</text><text x="341" y="425" class="l">target ≤ 5% · variance +3.1 · org, code side</text><polyline points="341,460 395,455 445,450 495,452 545,448" fill="none" stroke="#3a7bd5" stroke-width="2"/><text x="505" y="470" class="s">owner JO</text>
<rect x="610" y="330" width="265" height="150" class="box"/><text x="626" y="355" class="s">DEFECTS on vs off system (M5)</text><text x="626" y="400" class="m">0.4 / 1.9</text><text x="626" y="425" class="l">per release · last 6 releases · target ≤ 0.5 on</text><polyline points="626,452 680,450 730,455 780,448 830,446" fill="none" stroke="#3a7bd5" stroke-width="2"/><text x="785" y="470" class="s">owner MC</text>
<rect x="895" y="330" width="265" height="150" class="box"/><text x="911" y="355" class="s">ENGAGEMENT COMPOSITE (M6)</text><text x="911" y="400" class="m">88%</text><text x="911" y="425" class="l">3-mo avg 82.7 · index vs Jan 1.12 · target ≥ 80%</text><polyline points="911,462 965,458 1015,455 1065,448 1115,440" fill="none" stroke="#3a7bd5" stroke-width="2"/><text x="1075" y="470" class="s">owner SL</text>
</g>
<rect x="40" y="510" width="1120" height="330" class="box"/>
<text x="64" y="538" class="s">PROOF · Dark theme rollout · 2026-06-03 to 2026-07-11</text>
<rect x="64" y="555" width="300" height="200" class="dark"/><text x="74" y="575" class="l">BEFORE · Checkout summary · 2026-06-02</text>
<rect x="380" y="555" width="300" height="200" class="dark"/><text x="390" y="575" class="l">AFTER · Checkout summary · 2026-07-12</text>
<g transform="translate(0,280)"><text x="710" y="300" class="l">LAST TIME   1,140 h   source: 2024 theme project timesheets (baseline recorded)</text>
<text x="710" y="324" class="l">THIS TIME     190 h   source: DS-THEME tag, 4 repos</text>
<text x="710" y="362" class="m">saved 810 to 950 h</text>
<text x="710" y="388" class="l">≈ $69k to $81k at $85/h loaded · cost avoidance (M4 method b)</text>
<text x="710" y="418" class="l">What else changed: 12% fewer surfaces in scope (pessimistic figure removes it)</text>
<text x="710" y="448" class="l">“We changed 40 tokens and shipped in a sprint.” L. Pineda, Staff Engineer, Checkout</text></g>
<text x="64" y="815" class="s">M4(b) v1 · Owner A. Rivera · Published 2026-07-20 · one of 3 screens captured</text>
<rect x="40" y="870" width="550" height="170" class="box"/><text x="56" y="895" class="s">WHAT WE ARE NOT COUNTING</text>
<text x="56" y="925" class="l">· Onboarding time for 9 new engineers (no baseline yet)</text>
<text x="56" y="950" class="l">· QA hours on system-built surfaces (tracking starts Q4)</text>
<text x="56" y="975" class="l">· Brand-consistency effects on trust metrics</text>
<rect x="610" y="870" width="550" height="170" class="box"/><text x="626" y="895" class="s">RISK AND BREACHES</text>
<text x="626" y="925" class="l">Automated a11y pass rate on system surfaces: 96%, ▲ 3 pts (not a conformance claim).</text>
<text x="626" y="950" class="l">Key-person: 2 of 5 critical areas have no named backup. ▼</text>
<text x="626" y="985" class="l">Breach (M1): Admin console web coverage 58% → 41% over 28 days, since Aug 2.</text>
<text x="626" y="1008" class="l">Owner S. Lindqvist · cause: new vendor widget · open in the feed, escalated.</text>
<rect x="40" y="1070" width="1120" height="150" fill="#eef3fb" stroke="#9db6e0"/>
<text x="64" y="1100" class="s">THE DECISION</text>
<text x="64" y="1135" class="m">Hold current headcount through Q1; approve the Android coverage instrumentation (10 eng-days).</text>
<text x="64" y="1170" class="l">If no: Android stays unmeasured; the 80% target applies to web only and the December read-out will say so.</text>
<text x="40" y="1270" class="s">Definitions: /design-system/metrics · Data: BI › Design System › Executive · Method notes attached · Screen 1 of 11</text>
<text x="40" y="1470" class="s">Low-fidelity wireframe · numbers illustrative and shared with screens 2, 6, 7 and artifact 09 · design-system-value-kit 03 / screen 1</text>
</svg>
